<mxfile host="app.diagrams.net" agent="Mozilla/5.0 (Windows NT 10.0; Win64; x64) AppleWebKit/537.36 (KHTML, like Gecko) Chrome/140.0.0.0 Safari/537.36 Edg/140.0.0.0" version="28.2.0">
  <diagram name="Página-1" id="NWmMOXxj9j0GudqW8POs">
    <mxGraphModel dx="1034" dy="612" grid="0" gridSize="10" guides="1" tooltips="1" connect="1" arrows="1" fold="1" page="1" pageScale="1" pageWidth="827" pageHeight="1169" math="0" shadow="0">
      <root>
        <mxCell id="0" />
        <mxCell id="1" parent="0" />
        <mxCell id="YYSw4Cs6SsvSxw99k74Z-11" value="&lt;p style=&quot;margin: 4px 0px 0px;&quot;&gt;&lt;b&gt;Producto&lt;/b&gt;&lt;/p&gt;&lt;hr&gt;&lt;blockquote style=&quot;margin: 0px 0px 0px 10px; border: none; padding: 0px 0px 5px;&quot;&gt;&lt;div style=&quot;text-align: left;&quot;&gt;&lt;span style=&quot;background-color: transparent; color: light-dark(rgb(0, 0, 0), rgb(255, 255, 255));&quot;&gt;codigoInterno&lt;/span&gt;&lt;/div&gt;&lt;div style=&quot;text-align: left;&quot;&gt;descripcion&lt;/div&gt;&lt;div style=&quot;text-align: left;&quot;&gt;precioVenta&lt;/div&gt;&lt;div style=&quot;text-align: left;&quot;&gt;existencia&lt;/div&gt;&lt;/blockquote&gt;" style="verticalAlign=middle;align=center;overflow=fill;html=1;whiteSpace=wrap;fontFamily=Arial;fontSize=12;" parent="1" vertex="1">
          <mxGeometry x="592" y="173" width="90" height="100" as="geometry" />
        </mxCell>
        <mxCell id="YYSw4Cs6SsvSxw99k74Z-13" value="&lt;p style=&quot;margin:0px;margin-top:4px;text-align:center;&quot;&gt;&lt;b&gt;Cliente&lt;/b&gt;&lt;/p&gt;&lt;hr&gt;&lt;blockquote style=&quot;margin: 0px 0px 0px 10px; border: none; padding: 0px;&quot;&gt;&lt;div&gt;&lt;span style=&quot;background-color: transparent; color: light-dark(rgb(0, 0, 0), rgb(255, 255, 255));&quot;&gt;codigoInterno&lt;/span&gt;&lt;/div&gt;&lt;div&gt;nombre&lt;/div&gt;&lt;div&gt;rucCi&lt;/div&gt;&lt;div&gt;direccion&lt;/div&gt;&lt;div&gt;telefono&lt;/div&gt;&lt;/blockquote&gt;" style="verticalAlign=top;align=left;overflow=fill;html=1;whiteSpace=wrap;spacingLeft=3;fontFamily=Arial;fontSize=12;" parent="1" vertex="1">
          <mxGeometry x="700" y="110" width="90" height="110" as="geometry" />
        </mxCell>
        <mxCell id="YYSw4Cs6SsvSxw99k74Z-21" value="&lt;p style=&quot;margin:0px;margin-top:4px;text-align:center;&quot;&gt;&lt;b&gt;Tienda&lt;/b&gt;&lt;/p&gt;&lt;hr&gt;&lt;blockquote style=&quot;margin: 0px 0px 0px 10px; border: none; padding: 0px;&quot;&gt;&lt;div&gt;&lt;span style=&quot;background-color: transparent; color: light-dark(rgb(0, 0, 0), rgb(255, 255, 255));&quot;&gt;nombre&lt;/span&gt;&lt;/div&gt;&lt;div&gt;direccion&lt;/div&gt;&lt;/blockquote&gt;" style="verticalAlign=top;align=left;overflow=fill;html=1;whiteSpace=wrap;spacingLeft=3;fontFamily=Arial;fontSize=12;" parent="1" vertex="1">
          <mxGeometry x="337" y="20" width="77" height="76" as="geometry" />
        </mxCell>
        <mxCell id="YYSw4Cs6SsvSxw99k74Z-22" value="&lt;p style=&quot;margin:0px;margin-top:4px;text-align:center;&quot;&gt;&lt;b&gt;Proveedor&lt;/b&gt;&lt;/p&gt;&lt;hr&gt;&lt;blockquote style=&quot;margin: 0px 0px 0px 10px; border: none; padding: 0px;&quot;&gt;&lt;div&gt;&lt;span style=&quot;background-color: transparent; color: light-dark(rgb(0, 0, 0), rgb(255, 255, 255));&quot;&gt;codigoInterno&lt;/span&gt;&lt;/div&gt;&lt;div&gt;nombre&lt;/div&gt;&lt;div&gt;rucCi&lt;/div&gt;&lt;div&gt;direccion&lt;/div&gt;&lt;div&gt;telefono&lt;/div&gt;&lt;/blockquote&gt;" style="verticalAlign=top;align=left;overflow=fill;html=1;whiteSpace=wrap;spacingLeft=3;fontFamily=Arial;fontSize=12;" parent="1" vertex="1">
          <mxGeometry x="463" y="173" width="97" height="110" as="geometry" />
        </mxCell>
        <mxCell id="YYSw4Cs6SsvSxw99k74Z-23" value="&lt;p style=&quot;margin:0px;margin-top:4px;text-align:center;&quot;&gt;&lt;b&gt;Venta&lt;/b&gt;&lt;/p&gt;&lt;hr&gt;&lt;blockquote style=&quot;margin: 0px 0px 0px 10px; border: none; padding: 0px;&quot;&gt;&lt;div&gt;fecha&lt;/div&gt;&lt;div&gt;hora&lt;/div&gt;&lt;div&gt;/total&lt;/div&gt;&lt;/blockquote&gt;" style="verticalAlign=top;align=left;overflow=fill;html=1;whiteSpace=wrap;spacingLeft=3;fontFamily=Arial;fontSize=12;" parent="1" vertex="1">
          <mxGeometry x="48" y="190" width="91" height="80" as="geometry" />
        </mxCell>
        <mxCell id="YYSw4Cs6SsvSxw99k74Z-24" value="&lt;p style=&quot;margin:0px;margin-top:4px;text-align:center;&quot;&gt;&lt;b&gt;Compra&lt;/b&gt;&lt;/p&gt;&lt;hr&gt;&lt;blockquote style=&quot;margin: 0px 0px 0px 10px; border: none; padding: 0px;&quot;&gt;&lt;div&gt;fecha&lt;/div&gt;&lt;div&gt;hora&lt;/div&gt;&lt;div&gt;/total&lt;/div&gt;&lt;/blockquote&gt;" style="verticalAlign=top;align=left;overflow=fill;html=1;whiteSpace=wrap;spacingLeft=3;fontFamily=Arial;fontSize=12;" parent="1" vertex="1">
          <mxGeometry x="152" y="150" width="80" height="80" as="geometry" />
        </mxCell>
        <mxCell id="YYSw4Cs6SsvSxw99k74Z-25" value="&lt;p style=&quot;margin:0px;margin-top:4px;text-align:center;&quot;&gt;&lt;b&gt;LineaDeVenta&lt;/b&gt;&lt;/p&gt;&lt;hr&gt;&lt;blockquote style=&quot;margin: 0px 0px 0px 10px; border: none; padding: 0px;&quot;&gt;&lt;div&gt;&lt;span style=&quot;background-color: transparent; color: light-dark(rgb(0, 0, 0), rgb(255, 255, 255));&quot;&gt;cantidad&lt;/span&gt;&lt;/div&gt;&lt;/blockquote&gt;" style="verticalAlign=top;align=left;overflow=fill;html=1;whiteSpace=wrap;spacingLeft=3;fontFamily=Arial;fontSize=12;" parent="1" vertex="1">
          <mxGeometry x="280" y="400" width="90" height="50" as="geometry" />
        </mxCell>
        <mxCell id="YYSw4Cs6SsvSxw99k74Z-26" value="&lt;p style=&quot;margin:0px;margin-top:4px;text-align:center;&quot;&gt;&lt;b&gt;LineaDeCompra&lt;/b&gt;&lt;/p&gt;&lt;hr&gt;&lt;blockquote style=&quot;margin: 0px 0px 0px 10px; border: none; padding: 0px;&quot;&gt;&lt;div&gt;&lt;span style=&quot;background-color: transparent; color: light-dark(rgb(0, 0, 0), rgb(255, 255, 255));&quot;&gt;cantidad&lt;/span&gt;&lt;/div&gt;&lt;div&gt;&lt;span style=&quot;background-color: transparent; color: light-dark(rgb(0, 0, 0), rgb(255, 255, 255));&quot;&gt;precioCompra&lt;/span&gt;&lt;/div&gt;&lt;/blockquote&gt;" style="verticalAlign=top;align=left;overflow=fill;html=1;whiteSpace=wrap;spacingLeft=3;fontFamily=Arial;fontSize=12;" parent="1" vertex="1">
          <mxGeometry x="320" y="292" width="107" height="70" as="geometry" />
        </mxCell>
        <mxCell id="YYSw4Cs6SsvSxw99k74Z-27" value="&lt;p style=&quot;margin:0px;margin-top:4px;text-align:center;&quot;&gt;&lt;b&gt;Pago&lt;/b&gt;&lt;/p&gt;&lt;hr&gt;&lt;blockquote style=&quot;margin: 0px 0px 0px 10px; border: none; padding: 0px;&quot;&gt;&lt;div&gt;&lt;span style=&quot;background-color: transparent; color: light-dark(rgb(0, 0, 0), rgb(255, 255, 255));&quot;&gt;cantidad&lt;/span&gt;&lt;/div&gt;&lt;/blockquote&gt;" style="verticalAlign=top;align=left;overflow=fill;html=1;whiteSpace=wrap;spacingLeft=3;fontFamily=Arial;fontSize=12;" parent="1" vertex="1">
          <mxGeometry x="280" y="490" width="70" height="50" as="geometry" />
        </mxCell>
        <mxCell id="YYSw4Cs6SsvSxw99k74Z-66" value="" style="endArrow=none;html=1;edgeStyle=orthogonalEdgeStyle;rounded=0;exitX=0;exitY=0.25;exitDx=0;exitDy=0;entryX=0.5;entryY=0;entryDx=0;entryDy=0;fontFamily=Arial;fontSize=12;" parent="1" source="YYSw4Cs6SsvSxw99k74Z-21" target="YYSw4Cs6SsvSxw99k74Z-23" edge="1">
          <mxGeometry relative="1" as="geometry">
            <mxPoint x="337" y="130" as="sourcePoint" />
            <mxPoint x="497" y="130" as="targetPoint" />
          </mxGeometry>
        </mxCell>
        <mxCell id="YYSw4Cs6SsvSxw99k74Z-67" value="&lt;font&gt;1&lt;/font&gt;" style="edgeLabel;resizable=0;html=1;align=left;verticalAlign=bottom;fontFamily=Arial;fontSize=12;" parent="YYSw4Cs6SsvSxw99k74Z-66" connectable="0" vertex="1">
          <mxGeometry x="-1" relative="1" as="geometry">
            <mxPoint x="-17" as="offset" />
          </mxGeometry>
        </mxCell>
        <mxCell id="YYSw4Cs6SsvSxw99k74Z-68" value="&lt;font&gt;0..*&amp;nbsp;&lt;/font&gt;" style="edgeLabel;resizable=0;html=1;align=right;verticalAlign=bottom;fontFamily=Arial;fontSize=12;" parent="YYSw4Cs6SsvSxw99k74Z-66" connectable="0" vertex="1">
          <mxGeometry x="1" relative="1" as="geometry">
            <mxPoint y="-10" as="offset" />
          </mxGeometry>
        </mxCell>
        <mxCell id="YYSw4Cs6SsvSxw99k74Z-69" value="ᐊ Registra-ventas-en&amp;nbsp;ᐊ" style="text;html=1;align=center;verticalAlign=middle;resizable=0;points=[];autosize=1;strokeColor=none;fillColor=none;fontSize=12;fontFamily=Arial;" parent="1" vertex="1">
          <mxGeometry x="130" y="16" width="145" height="26" as="geometry" />
        </mxCell>
        <mxCell id="YYSw4Cs6SsvSxw99k74Z-70" value="" style="endArrow=none;html=1;edgeStyle=orthogonalEdgeStyle;rounded=0;exitX=0;exitY=0.75;exitDx=0;exitDy=0;entryX=0.5;entryY=0;entryDx=0;entryDy=0;fontSize=12;fontFamily=Arial;" parent="1" source="YYSw4Cs6SsvSxw99k74Z-21" target="YYSw4Cs6SsvSxw99k74Z-24" edge="1">
          <mxGeometry relative="1" as="geometry">
            <mxPoint x="190" y="290" as="sourcePoint" />
            <mxPoint x="350" y="290" as="targetPoint" />
          </mxGeometry>
        </mxCell>
        <mxCell id="YYSw4Cs6SsvSxw99k74Z-71" value="1" style="edgeLabel;resizable=0;html=1;align=left;verticalAlign=bottom;fontSize=12;fontFamily=Arial;" parent="YYSw4Cs6SsvSxw99k74Z-70" connectable="0" vertex="1">
          <mxGeometry x="-1" relative="1" as="geometry">
            <mxPoint x="-16" y="-4" as="offset" />
          </mxGeometry>
        </mxCell>
        <mxCell id="YYSw4Cs6SsvSxw99k74Z-72" value="0..*&amp;nbsp;" style="edgeLabel;resizable=0;html=1;align=right;verticalAlign=bottom;fontSize=12;fontFamily=Arial;" parent="YYSw4Cs6SsvSxw99k74Z-70" connectable="0" vertex="1">
          <mxGeometry x="1" relative="1" as="geometry">
            <mxPoint x="-2" y="-7" as="offset" />
          </mxGeometry>
        </mxCell>
        <mxCell id="YYSw4Cs6SsvSxw99k74Z-76" value="ᐊ Registra-compras-en&amp;nbsp;ᐊ" style="text;html=1;align=center;verticalAlign=middle;resizable=0;points=[];autosize=1;strokeColor=none;fillColor=none;fontSize=12;fontFamily=Arial;" parent="1" vertex="1">
          <mxGeometry x="166" y="56" width="155" height="26" as="geometry" />
        </mxCell>
        <mxCell id="YYSw4Cs6SsvSxw99k74Z-77" value="" style="endArrow=none;html=1;edgeStyle=orthogonalEdgeStyle;rounded=0;exitX=1;exitY=0.25;exitDx=0;exitDy=0;entryX=0.5;entryY=0;entryDx=0;entryDy=0;fontFamily=Arial;fontSize=12;" parent="1" source="YYSw4Cs6SsvSxw99k74Z-21" target="YYSw4Cs6SsvSxw99k74Z-13" edge="1">
          <mxGeometry relative="1" as="geometry">
            <mxPoint x="434" y="37" as="sourcePoint" />
            <mxPoint x="605" y="44" as="targetPoint" />
          </mxGeometry>
        </mxCell>
        <mxCell id="YYSw4Cs6SsvSxw99k74Z-78" value="1" style="edgeLabel;resizable=0;html=1;align=left;verticalAlign=bottom;fontFamily=Arial;fontSize=12;" parent="YYSw4Cs6SsvSxw99k74Z-77" connectable="0" vertex="1">
          <mxGeometry x="-1" relative="1" as="geometry">
            <mxPoint x="5" as="offset" />
          </mxGeometry>
        </mxCell>
        <mxCell id="YYSw4Cs6SsvSxw99k74Z-79" value="0..*&amp;nbsp;" style="edgeLabel;resizable=0;html=1;align=right;verticalAlign=bottom;fontFamily=Arial;fontSize=12;" parent="YYSw4Cs6SsvSxw99k74Z-77" connectable="0" vertex="1">
          <mxGeometry x="1" relative="1" as="geometry">
            <mxPoint x="-6" y="-8" as="offset" />
          </mxGeometry>
        </mxCell>
        <mxCell id="YYSw4Cs6SsvSxw99k74Z-80" value="▷ Tiene-registrado-a ▷" style="text;html=1;align=center;verticalAlign=middle;resizable=0;points=[];autosize=1;strokeColor=none;fillColor=none;fontSize=12;fontFamily=Arial;" parent="1" vertex="1">
          <mxGeometry x="490" y="16" width="143" height="26" as="geometry" />
        </mxCell>
        <mxCell id="YYSw4Cs6SsvSxw99k74Z-81" value="" style="endArrow=none;html=1;edgeStyle=orthogonalEdgeStyle;rounded=0;exitX=0.5;exitY=1;exitDx=0;exitDy=0;entryX=0.5;entryY=0;entryDx=0;entryDy=0;fontFamily=Arial;fontSize=12;" parent="1" source="YYSw4Cs6SsvSxw99k74Z-21" target="YYSw4Cs6SsvSxw99k74Z-22" edge="1">
          <mxGeometry relative="1" as="geometry">
            <mxPoint x="305" y="220" as="sourcePoint" />
            <mxPoint x="465" y="220" as="targetPoint" />
            <Array as="points">
              <mxPoint x="376" y="148" />
              <mxPoint x="509" y="148" />
              <mxPoint x="509" y="173" />
            </Array>
          </mxGeometry>
        </mxCell>
        <mxCell id="YYSw4Cs6SsvSxw99k74Z-82" value="1" style="edgeLabel;resizable=0;html=1;align=left;verticalAlign=bottom;fontFamily=Arial;fontSize=12;" parent="YYSw4Cs6SsvSxw99k74Z-81" connectable="0" vertex="1">
          <mxGeometry x="-1" relative="1" as="geometry">
            <mxPoint x="6" y="19" as="offset" />
          </mxGeometry>
        </mxCell>
        <mxCell id="YYSw4Cs6SsvSxw99k74Z-83" value="0..*" style="edgeLabel;resizable=0;html=1;align=right;verticalAlign=bottom;fontFamily=Arial;fontSize=12;" parent="YYSw4Cs6SsvSxw99k74Z-81" connectable="0" vertex="1">
          <mxGeometry x="1" relative="1" as="geometry">
            <mxPoint x="23" y="-2" as="offset" />
          </mxGeometry>
        </mxCell>
        <mxCell id="YYSw4Cs6SsvSxw99k74Z-85" value="▷ Tiene-registrado-a ▷" style="text;html=1;align=center;verticalAlign=middle;resizable=0;points=[];autosize=1;strokeColor=none;fillColor=none;fontSize=12;fontFamily=Arial;" parent="1" vertex="1">
          <mxGeometry x="370" y="123" width="143" height="26" as="geometry" />
        </mxCell>
        <mxCell id="YYSw4Cs6SsvSxw99k74Z-90" value="" style="endArrow=none;html=1;edgeStyle=orthogonalEdgeStyle;rounded=0;exitX=1;exitY=0.75;exitDx=0;exitDy=0;entryX=0;entryY=0.345;entryDx=0;entryDy=0;entryPerimeter=0;fontFamily=Arial;fontSize=12;" parent="1" source="YYSw4Cs6SsvSxw99k74Z-24" target="YYSw4Cs6SsvSxw99k74Z-22" edge="1">
          <mxGeometry relative="1" as="geometry">
            <mxPoint x="257" y="211" as="sourcePoint" />
            <mxPoint x="417" y="211" as="targetPoint" />
          </mxGeometry>
        </mxCell>
        <mxCell id="YYSw4Cs6SsvSxw99k74Z-91" value="&amp;nbsp;0..*" style="edgeLabel;resizable=0;html=1;align=left;verticalAlign=bottom;fontFamily=Arial;fontSize=12;" parent="YYSw4Cs6SsvSxw99k74Z-90" connectable="0" vertex="1">
          <mxGeometry x="-1" relative="1" as="geometry" />
        </mxCell>
        <mxCell id="YYSw4Cs6SsvSxw99k74Z-92" value="1&amp;nbsp;&amp;nbsp;" style="edgeLabel;resizable=0;html=1;align=right;verticalAlign=bottom;fontFamily=Arial;fontSize=12;" parent="YYSw4Cs6SsvSxw99k74Z-90" connectable="0" vertex="1">
          <mxGeometry x="1" relative="1" as="geometry" />
        </mxCell>
        <mxCell id="YYSw4Cs6SsvSxw99k74Z-93" value="▷ Abastecida-por ▷" style="text;html=1;align=center;verticalAlign=middle;resizable=0;points=[];autosize=1;strokeColor=none;fillColor=none;fontSize=12;fontFamily=Arial;" parent="1" vertex="1">
          <mxGeometry x="290" y="184" width="126" height="26" as="geometry" />
        </mxCell>
        <mxCell id="YYSw4Cs6SsvSxw99k74Z-94" value="" style="endArrow=none;html=1;edgeStyle=orthogonalEdgeStyle;rounded=0;exitX=1;exitY=0.75;exitDx=0;exitDy=0;entryX=0.5;entryY=0;entryDx=0;entryDy=0;fontFamily=Arial;fontSize=12;" parent="1" source="YYSw4Cs6SsvSxw99k74Z-21" target="YYSw4Cs6SsvSxw99k74Z-11" edge="1">
          <mxGeometry relative="1" as="geometry">
            <mxPoint x="456" y="358" as="sourcePoint" />
            <mxPoint x="616" y="358" as="targetPoint" />
          </mxGeometry>
        </mxCell>
        <mxCell id="YYSw4Cs6SsvSxw99k74Z-95" value="&amp;nbsp;1" style="edgeLabel;resizable=0;html=1;align=left;verticalAlign=bottom;fontFamily=Arial;fontSize=12;" parent="YYSw4Cs6SsvSxw99k74Z-94" connectable="0" vertex="1">
          <mxGeometry x="-1" relative="1" as="geometry" />
        </mxCell>
        <mxCell id="YYSw4Cs6SsvSxw99k74Z-96" value="0..*&amp;nbsp;&amp;nbsp;" style="edgeLabel;resizable=0;html=1;align=right;verticalAlign=bottom;fontFamily=Arial;fontSize=12;" parent="YYSw4Cs6SsvSxw99k74Z-94" connectable="0" vertex="1">
          <mxGeometry x="1" relative="1" as="geometry">
            <mxPoint y="-1" as="offset" />
          </mxGeometry>
        </mxCell>
        <mxCell id="YYSw4Cs6SsvSxw99k74Z-97" value="▷ Almacena ▷" style="text;html=1;align=center;verticalAlign=middle;resizable=0;points=[];autosize=1;strokeColor=none;fillColor=none;fontSize=12;fontFamily=Arial;" parent="1" vertex="1">
          <mxGeometry x="486" y="56" width="98" height="26" as="geometry" />
        </mxCell>
        <mxCell id="YYSw4Cs6SsvSxw99k74Z-98" value="" style="endArrow=none;html=1;edgeStyle=orthogonalEdgeStyle;rounded=0;exitX=0.5;exitY=1;exitDx=0;exitDy=0;entryX=0;entryY=0.5;entryDx=0;entryDy=0;fontFamily=Arial;fontSize=12;" parent="1" source="YYSw4Cs6SsvSxw99k74Z-24" target="YYSw4Cs6SsvSxw99k74Z-26" edge="1">
          <mxGeometry relative="1" as="geometry">
            <mxPoint x="165" y="321" as="sourcePoint" />
            <mxPoint x="325" y="321" as="targetPoint" />
          </mxGeometry>
        </mxCell>
        <mxCell id="YYSw4Cs6SsvSxw99k74Z-99" value="1" style="edgeLabel;resizable=0;html=1;align=left;verticalAlign=bottom;fontFamily=Arial;fontSize=12;" parent="YYSw4Cs6SsvSxw99k74Z-98" connectable="0" vertex="1">
          <mxGeometry x="-1" relative="1" as="geometry">
            <mxPoint x="3" y="19" as="offset" />
          </mxGeometry>
        </mxCell>
        <mxCell id="YYSw4Cs6SsvSxw99k74Z-100" value="1..*&amp;nbsp;&amp;nbsp;" style="edgeLabel;resizable=0;html=1;align=right;verticalAlign=bottom;fontFamily=Arial;fontSize=12;" parent="YYSw4Cs6SsvSxw99k74Z-98" connectable="0" vertex="1">
          <mxGeometry x="1" relative="1" as="geometry">
            <mxPoint x="-3" y="-3" as="offset" />
          </mxGeometry>
        </mxCell>
        <mxCell id="YYSw4Cs6SsvSxw99k74Z-101" value="Contiene" style="text;html=1;align=center;verticalAlign=middle;resizable=0;points=[];autosize=1;strokeColor=none;fillColor=none;fontSize=12;fontFamily=Arial;" parent="1" vertex="1">
          <mxGeometry x="208" y="303" width="66" height="26" as="geometry" />
        </mxCell>
        <mxCell id="YYSw4Cs6SsvSxw99k74Z-102" value="" style="endArrow=none;html=1;edgeStyle=orthogonalEdgeStyle;rounded=0;exitX=1;exitY=0.5;exitDx=0;exitDy=0;entryX=0.5;entryY=1;entryDx=0;entryDy=0;fontFamily=Arial;fontSize=12;" parent="1" source="YYSw4Cs6SsvSxw99k74Z-26" target="YYSw4Cs6SsvSxw99k74Z-11" edge="1">
          <mxGeometry relative="1" as="geometry">
            <mxPoint x="483" y="334" as="sourcePoint" />
            <mxPoint x="643" y="334" as="targetPoint" />
          </mxGeometry>
        </mxCell>
        <mxCell id="YYSw4Cs6SsvSxw99k74Z-103" value="&amp;nbsp; 0..*" style="edgeLabel;resizable=0;html=1;align=left;verticalAlign=bottom;fontFamily=Arial;fontSize=12;" parent="YYSw4Cs6SsvSxw99k74Z-102" connectable="0" vertex="1">
          <mxGeometry x="-1" relative="1" as="geometry">
            <mxPoint x="4" y="-2" as="offset" />
          </mxGeometry>
        </mxCell>
        <mxCell id="YYSw4Cs6SsvSxw99k74Z-104" value="1" style="edgeLabel;resizable=0;html=1;align=right;verticalAlign=bottom;fontFamily=Arial;fontSize=12;" parent="YYSw4Cs6SsvSxw99k74Z-102" connectable="0" vertex="1">
          <mxGeometry x="1" relative="1" as="geometry">
            <mxPoint x="-6" y="21" as="offset" />
          </mxGeometry>
        </mxCell>
        <mxCell id="YYSw4Cs6SsvSxw99k74Z-105" value="ᐊ Registra-compra-de ᐊ" style="text;html=1;align=center;verticalAlign=middle;resizable=0;points=[];autosize=1;strokeColor=none;fillColor=none;fontSize=12;fontFamily=Arial;" parent="1" vertex="1">
          <mxGeometry x="474" y="303" width="149" height="26" as="geometry" />
        </mxCell>
        <mxCell id="YYSw4Cs6SsvSxw99k74Z-106" value="" style="endArrow=none;html=1;edgeStyle=orthogonalEdgeStyle;rounded=0;exitX=1;exitY=0.5;exitDx=0;exitDy=0;entryX=0.75;entryY=1;entryDx=0;entryDy=0;fontFamily=Arial;fontSize=12;" parent="1" source="YYSw4Cs6SsvSxw99k74Z-25" target="YYSw4Cs6SsvSxw99k74Z-11" edge="1">
          <mxGeometry relative="1" as="geometry">
            <mxPoint x="411" y="444" as="sourcePoint" />
            <mxPoint x="571" y="444" as="targetPoint" />
          </mxGeometry>
        </mxCell>
        <mxCell id="YYSw4Cs6SsvSxw99k74Z-107" value="&amp;nbsp;0..*" style="edgeLabel;resizable=0;html=1;align=left;verticalAlign=bottom;fontFamily=Arial;fontSize=12;" parent="YYSw4Cs6SsvSxw99k74Z-106" connectable="0" vertex="1">
          <mxGeometry x="-1" relative="1" as="geometry">
            <mxPoint x="5" y="-5" as="offset" />
          </mxGeometry>
        </mxCell>
        <mxCell id="YYSw4Cs6SsvSxw99k74Z-108" value="1" style="edgeLabel;resizable=0;html=1;align=right;verticalAlign=bottom;fontFamily=Arial;fontSize=12;" parent="YYSw4Cs6SsvSxw99k74Z-106" connectable="0" vertex="1">
          <mxGeometry x="1" relative="1" as="geometry">
            <mxPoint x="17" y="20" as="offset" />
          </mxGeometry>
        </mxCell>
        <mxCell id="YYSw4Cs6SsvSxw99k74Z-109" value="ᐊ Registra-venta-de ᐊ" style="text;html=1;align=center;verticalAlign=middle;resizable=0;points=[];autosize=1;strokeColor=none;fillColor=none;fontSize=12;fontFamily=Arial;" parent="1" vertex="1">
          <mxGeometry x="467" y="401" width="139" height="26" as="geometry" />
        </mxCell>
        <mxCell id="YYSw4Cs6SsvSxw99k74Z-113" value="" style="endArrow=none;html=1;edgeStyle=orthogonalEdgeStyle;rounded=0;exitX=0.75;exitY=1;exitDx=0;exitDy=0;entryX=0;entryY=0.5;entryDx=0;entryDy=0;fontFamily=Arial;fontSize=12;" parent="1" source="YYSw4Cs6SsvSxw99k74Z-23" target="YYSw4Cs6SsvSxw99k74Z-25" edge="1">
          <mxGeometry relative="1" as="geometry">
            <mxPoint x="112" y="627" as="sourcePoint" />
            <mxPoint x="272" y="627" as="targetPoint" />
          </mxGeometry>
        </mxCell>
        <mxCell id="YYSw4Cs6SsvSxw99k74Z-114" value="1" style="edgeLabel;resizable=0;html=1;align=left;verticalAlign=bottom;fontFamily=Arial;fontSize=12;" parent="YYSw4Cs6SsvSxw99k74Z-113" connectable="0" vertex="1">
          <mxGeometry x="-1" relative="1" as="geometry">
            <mxPoint x="5" y="20" as="offset" />
          </mxGeometry>
        </mxCell>
        <mxCell id="YYSw4Cs6SsvSxw99k74Z-115" value="1..*&amp;nbsp;&amp;nbsp;" style="edgeLabel;resizable=0;html=1;align=right;verticalAlign=bottom;fontFamily=Arial;fontSize=12;" parent="YYSw4Cs6SsvSxw99k74Z-113" connectable="0" vertex="1">
          <mxGeometry x="1" relative="1" as="geometry">
            <mxPoint x="-4" y="-2" as="offset" />
          </mxGeometry>
        </mxCell>
        <mxCell id="YYSw4Cs6SsvSxw99k74Z-117" value="Contiene" style="text;html=1;align=center;verticalAlign=middle;resizable=0;points=[];autosize=1;strokeColor=none;fillColor=none;fontSize=12;fontFamily=Arial;" parent="1" vertex="1">
          <mxGeometry x="133" y="401" width="66" height="26" as="geometry" />
        </mxCell>
        <mxCell id="YYSw4Cs6SsvSxw99k74Z-118" value="" style="endArrow=none;html=1;edgeStyle=orthogonalEdgeStyle;rounded=0;entryX=0;entryY=0.5;entryDx=0;entryDy=0;exitX=0.5;exitY=1;exitDx=0;exitDy=0;fontFamily=Arial;fontSize=12;" parent="1" source="YYSw4Cs6SsvSxw99k74Z-23" target="YYSw4Cs6SsvSxw99k74Z-27" edge="1">
          <mxGeometry relative="1" as="geometry">
            <mxPoint x="117" y="520" as="sourcePoint" />
            <mxPoint x="277" y="520" as="targetPoint" />
          </mxGeometry>
        </mxCell>
        <mxCell id="YYSw4Cs6SsvSxw99k74Z-119" value="1" style="edgeLabel;resizable=0;html=1;align=left;verticalAlign=bottom;fontFamily=Arial;fontSize=12;" parent="YYSw4Cs6SsvSxw99k74Z-118" connectable="0" vertex="1">
          <mxGeometry x="-1" relative="1" as="geometry">
            <mxPoint x="1" y="20" as="offset" />
          </mxGeometry>
        </mxCell>
        <mxCell id="YYSw4Cs6SsvSxw99k74Z-120" value="1" style="edgeLabel;resizable=0;html=1;align=right;verticalAlign=bottom;fontFamily=Arial;fontSize=12;" parent="YYSw4Cs6SsvSxw99k74Z-118" connectable="0" vertex="1">
          <mxGeometry x="1" relative="1" as="geometry">
            <mxPoint x="-6" y="-2" as="offset" />
          </mxGeometry>
        </mxCell>
        <mxCell id="YYSw4Cs6SsvSxw99k74Z-121" value="▷ Pagada-mediante ▷" style="text;html=1;align=center;verticalAlign=middle;resizable=0;points=[];autosize=1;strokeColor=none;fillColor=none;fontSize=12;fontFamily=Arial;" parent="1" vertex="1">
          <mxGeometry x="108" y="491" width="140" height="26" as="geometry" />
        </mxCell>
        <mxCell id="YYSw4Cs6SsvSxw99k74Z-122" value="" style="endArrow=none;html=1;edgeStyle=orthogonalEdgeStyle;rounded=0;entryX=0.5;entryY=1;entryDx=0;entryDy=0;fontFamily=Arial;fontSize=12;exitX=0.187;exitY=1;exitDx=0;exitDy=0;exitPerimeter=0;" parent="1" source="YYSw4Cs6SsvSxw99k74Z-23" target="YYSw4Cs6SsvSxw99k74Z-13" edge="1">
          <mxGeometry relative="1" as="geometry">
            <mxPoint x="59" y="270" as="sourcePoint" />
            <mxPoint x="398" y="631" as="targetPoint" />
            <Array as="points">
              <mxPoint x="59" y="270" />
              <mxPoint x="59" y="584" />
              <mxPoint x="745" y="584" />
            </Array>
          </mxGeometry>
        </mxCell>
        <mxCell id="YYSw4Cs6SsvSxw99k74Z-123" value="0..*" style="edgeLabel;resizable=0;html=1;align=left;verticalAlign=bottom;fontFamily=Arial;fontSize=12;" parent="YYSw4Cs6SsvSxw99k74Z-122" connectable="0" vertex="1">
          <mxGeometry x="-1" relative="1" as="geometry">
            <mxPoint x="-2" y="21" as="offset" />
          </mxGeometry>
        </mxCell>
        <mxCell id="YYSw4Cs6SsvSxw99k74Z-124" value="1" style="edgeLabel;resizable=0;html=1;align=right;verticalAlign=bottom;fontFamily=Arial;fontSize=12;" parent="YYSw4Cs6SsvSxw99k74Z-122" connectable="0" vertex="1">
          <mxGeometry x="1" relative="1" as="geometry">
            <mxPoint x="13" y="20" as="offset" />
          </mxGeometry>
        </mxCell>
        <mxCell id="YYSw4Cs6SsvSxw99k74Z-125" value="ᐊ Realizada-por ᐊ" style="text;html=1;align=center;verticalAlign=middle;resizable=0;points=[];autosize=1;strokeColor=none;fillColor=none;fontSize=12;fontFamily=Arial;" parent="1" vertex="1">
          <mxGeometry x="372" y="559" width="118" height="26" as="geometry" />
        </mxCell>
      </root>
    </mxGraphModel>
  </diagram>
</mxfile>
